<svg xmlns="http://www.w3.org/2000/svg" viewBox="0 0 64 64">
  <rect width="64" height="64" rx="12" fill="#2D5A4A"/>
  <g transform="translate(12, 8)">
    <!-- Steam -->
    <path d="M14 12 Q16 6 14 0" stroke="#C4A574" stroke-width="2" fill="none" stroke-linecap="round" opacity="0.7"/>
    <path d="M20 14 Q22 7 20 1" stroke="#C4A574" stroke-width="2" fill="none" stroke-linecap="round" opacity="0.5"/>
    <path d="M26 12 Q28 6 26 0" stroke="#C4A574" stroke-width="2" fill="none" stroke-linecap="round" opacity="0.7"/>
    <!-- Cup -->
    <path d="M6 18 L6 40 Q6 48 20 48 Q34 48 34 40 L34 18 Z" fill="#C4A574"/>
    <!-- Cup highlight -->
    <path d="M10 18 L10 38 Q10 44 20 44 Q24 44 26 42" fill="#D4BC94" opacity="0.4"/>
    <!-- Handle -->
    <path d="M34 24 Q42 24 42 32 Q42 40 34 40" stroke="#C4A574" stroke-width="3.5" fill="none" stroke-linecap="round"/>
    <!-- Saucer -->
    <ellipse cx="20" cy="50" rx="18" ry="4" fill="#C4A574" opacity="0.6"/>
  </g>
</svg>
